<svg height="480pt" viewBox="0 -8 480 480" width="480pt" xmlns="http://www.w3.org/2000/svg"><path d="m416 464h-224c-13.253906 0-24-10.746094-24-24v-320c0-13.253906 10.746094-24 24-24h176l72 72v272c0 13.253906-10.746094 24-24 24zm0 0" fill="#0093ba"/><path d="m208 264h192v160h-192zm0 0" fill="#ffc119"/><path d="m352 264v88h-144v16h40v56h16v-56h32v56h16v-56h40v56h16v-160zm0 0" fill="#ea732d"/><path d="m208 352v16h40v16h16v-16h32v15.199219c5.808594-1.164063 11.277344-3.625 16-7.199219v-8h8c3.574219-4.722656 6.035156-10.191406 7.199219-16zm0 0" fill="#ea732d"/><path d="m208 368h40v16h-40zm0 0" fill="#faac2b"/><g fill="#a1dbe8"><path d="m464 256h16v152h-16zm0 0"/><path d="m464 424h16v16h-16zm0 0"/><path d="m0 32h16v232h-16zm0 0"/></g><path d="m168 368h40v16h-40zm0 0" fill="#047fa7"/><path d="m296 264h32v88h-32zm0 0" fill="#faac2b"/><path d="m288 368h-224c-13.253906 0-24-10.746094-24-24v-320c0-13.253906 10.746094-24 24-24h176l72 72v272c0 13.253906-10.746094 24-24 24zm0 0" fill="#0093ba"/><path d="m80 168h192v160h-192zm0 0" fill="#ffc119"/><path d="m184 216v-48h-16v40h-88v16h96c4.417969 0 8-3.582031 8-8zm0 0" fill="#ea732d"/><path d="m216 168v88h-136v16h40v56h16v-56h32v56h16v-56h32v56h16v-160zm0 0" fill="#ea732d"/><path d="m72 32h16v16h-16zm0 0" fill="#06687f"/><path d="m104 32h56v16h-56zm0 0" fill="#06687f"/><path d="m72 64h112v16h-112zm0 0" fill="#06687f"/><path d="m264 368h32v16h-32zm0 0" fill="#faac2b"/><path d="m312 96h16v168h-16zm0 0" fill="#047fa7"/></svg>